<svg width="669" height="569" viewBox="0 0 669 569" fill="none" xmlns="http://www.w3.org/2000/svg">
<path opacity="0.0991676" d="M172.755 572.353L-276.256 306.729C-290.551 298.683 -302.804 285.501 -288.875 276.852L161.733 16.8897C168.487 12.6963 178.751 9.94443 185.636 13.9543L656.901 287.781C671.197 296.089 673.762 319.231 659.52 327.618L231.925 571.933C213.663 582.537 191.165 582.697 172.755 572.353Z" fill="#6862E6"/>
<path d="M426.018 355.203L206.313 225.211C199.318 221.273 193.323 214.822 200.138 210.589L420.625 83.3669C423.93 81.3148 428.952 79.968 432.321 81.9304L662.916 215.937C669.91 220.003 671.166 231.329 664.197 235.433L454.971 354.998C446.035 360.187 435.026 360.265 426.018 355.203Z" fill="#5B36A0"/>
<path d="M426.018 349.203L206.313 219.211C199.318 215.273 193.323 208.822 200.138 204.589L420.625 77.3669C423.93 75.3148 428.952 73.968 432.321 75.9304L662.916 209.937C669.91 214.003 671.166 225.329 664.197 229.433L454.971 348.998C446.035 354.187 435.026 354.265 426.018 349.203Z" fill="#6862E6"/>
<g style="mix-blend-mode:multiply" opacity="0.25">
<path d="M444.133 177.693L400.781 202.46C400.781 202.46 467.564 243.26 481.22 249.006L506.188 213.093" fill="url(#paint0_linear_2_2)"/>
</g>
<g style="mix-blend-mode:multiply" opacity="0.25">
<path d="M429.157 296.513L385.792 271.798L342.428 296.565C342.428 296.565 365.013 310.366 386.599 323.038C400.307 313.328 414.027 303.517 429.157 296.513Z" fill="url(#paint1_linear_2_2)"/>
</g>
<g style="mix-blend-mode:multiply" opacity="0.46">
<path d="M335.728 143.883L308.223 159.595C308.223 159.595 310.554 173.999 324.211 179.745L360.222 156.658" fill="url(#paint2_linear_2_2)"/>
</g>
<ellipse cx="349.192" cy="147.898" rx="16.59" ry="11.6974" fill="#68E1FD"/>
<ellipse cx="349.179" cy="140.997" rx="12.4265" ry="5.09196" fill="#974C26"/>
<path fill-rule="evenodd" clip-rule="evenodd" d="M348.474 125.619C348.654 127.915 348.73 130.21 348.73 132.506C348.718 135.379 348.577 138.252 348.269 141.113C347.283 139.74 346.309 138.304 345.284 136.688C343.965 134.623 342.735 132.506 341.608 130.339C340.56 128.411 339.664 126.404 338.93 124.336C338.114 122.09 337.459 119.788 336.97 117.448C336.842 116.884 336.727 116.217 336.624 115.602V115.383V114.845C336.522 113.639 336.419 112.357 336.419 111.074C336.362 106.712 337.204 102.385 338.892 98.3633C343.377 104.876 346.401 112.284 347.757 120.078C347.842 120.54 347.923 121.006 348 121.476C348 121.386 348.18 122.322 348.18 122.669L348.308 123.836C348.368 124.426 348.423 125.02 348.474 125.619ZM342.21 106.687C342.21 106.687 342.21 106.687 342.21 106.687H342.197C342.201 106.687 342.206 106.687 342.21 106.687ZM342.21 106.687C342.525 106.669 342.841 106.704 343.145 106.79C342.838 106.448 342.526 106.114 342.21 105.79C342.275 106.085 342.276 106.391 342.21 106.687Z" fill="#999A1C"/>
<path fill-rule="evenodd" clip-rule="evenodd" d="M356.494 128.338C355.405 130.428 354.278 132.34 352.996 134.276C351.446 136.7 349.73 139.035 348.026 141.305C347.911 139.625 347.911 137.88 347.911 135.969C347.911 133.52 348.013 131.083 348.244 128.646C348.402 126.456 348.732 124.281 349.23 122.143C349.753 119.809 350.443 117.516 351.293 115.281C351.523 114.691 351.767 114.114 352.01 113.537L352.01 113.537L352.074 113.331L352.33 112.857C352.907 111.741 353.522 110.638 354.188 109.573C356.502 105.868 359.554 102.68 363.155 100.21C363.416 108.124 361.96 116 358.889 123.297C358.71 123.716 358.526 124.144 358.339 124.58L357.839 125.683L357.314 126.747C357.049 127.278 356.776 127.808 356.494 128.338ZM361.887 108.239C361.801 108.529 361.652 108.796 361.452 109.022C361.702 109.154 361.93 109.322 362.131 109.522C362.062 109.112 361.981 108.684 361.887 108.239Z" fill="#999A1C"/>
<path fill-rule="evenodd" clip-rule="evenodd" d="M356.75 137.919C355.478 138.663 354.196 139.355 352.907 139.997C351.293 140.805 349.64 141.523 347.987 142.216C348.474 141.279 349.025 140.317 349.64 139.291C350.447 138.009 351.293 136.726 352.202 135.443C352.993 134.312 353.871 133.244 354.828 132.25C355.865 131.158 356.978 130.142 358.159 129.21L359.107 128.505L359.21 128.415L359.504 128.235C360.183 127.825 360.862 127.427 361.567 127.068C364.004 125.814 366.673 125.076 369.407 124.9C366.997 129.25 363.676 133.026 359.671 135.969L358.954 136.495L358.339 136.931L357.711 137.329L356.75 137.919ZM366.102 128.812C365.963 128.941 365.796 129.038 365.615 129.095V129.107C365.701 129.268 365.761 129.441 365.794 129.62C365.906 129.355 366.008 129.086 366.102 128.812Z" fill="#999A1C"/>
<path fill-rule="evenodd" clip-rule="evenodd" d="M348.474 125.619C348.654 127.915 348.73 130.21 348.73 132.506C348.718 135.379 348.577 138.252 348.269 141.113C347.283 139.74 346.309 138.304 345.284 136.688C343.965 134.623 342.735 132.506 341.608 130.339C340.56 128.411 339.664 126.404 338.93 124.336C338.114 122.09 337.459 119.788 336.97 117.448C336.842 116.884 336.727 116.217 336.624 115.602V115.383V114.845C336.522 113.639 336.419 112.357 336.419 111.074C336.362 106.712 337.204 102.385 338.892 98.3633C343.377 104.876 346.401 112.284 347.757 120.078C347.842 120.54 347.923 121.006 348 121.476C348 121.386 348.18 122.322 348.18 122.669L348.308 123.836C348.368 124.426 348.423 125.02 348.474 125.619ZM342.21 106.687C342.21 106.687 342.21 106.687 342.21 106.687H342.197C342.201 106.687 342.206 106.687 342.21 106.687ZM342.21 106.687C342.525 106.669 342.841 106.704 343.145 106.79C342.838 106.448 342.526 106.114 342.21 105.79C342.275 106.085 342.276 106.391 342.21 106.687Z" fill="#999A1C"/>
<path fill-rule="evenodd" clip-rule="evenodd" d="M356.494 128.338C355.405 130.428 354.278 132.34 352.996 134.276C351.446 136.7 349.73 139.035 348.026 141.305C347.911 139.625 347.911 137.88 347.911 135.969C347.911 133.52 348.013 131.083 348.244 128.646C348.402 126.456 348.732 124.281 349.23 122.143C349.753 119.809 350.443 117.516 351.293 115.281C351.523 114.691 351.767 114.114 352.01 113.537L352.01 113.537L352.074 113.331L352.33 112.857C352.907 111.741 353.522 110.638 354.188 109.573C356.502 105.868 359.554 102.68 363.155 100.21C363.416 108.124 361.96 116 358.889 123.297C358.71 123.716 358.526 124.144 358.339 124.58L357.839 125.683L357.314 126.747C357.049 127.278 356.776 127.808 356.494 128.338ZM361.887 108.239C361.801 108.529 361.652 108.796 361.452 109.022C361.702 109.154 361.93 109.322 362.131 109.522C362.062 109.112 361.981 108.684 361.887 108.239Z" fill="#999A1C"/>
<path fill-rule="evenodd" clip-rule="evenodd" d="M356.75 137.919C355.478 138.663 354.196 139.355 352.907 139.997C351.293 140.805 349.64 141.523 347.987 142.216C348.474 141.279 349.025 140.317 349.64 139.291C350.447 138.009 351.293 136.726 352.202 135.443C352.993 134.312 353.871 133.244 354.828 132.25C355.865 131.158 356.978 130.142 358.159 129.21L359.107 128.505L359.21 128.415L359.504 128.235C360.183 127.825 360.862 127.427 361.567 127.068C364.004 125.814 366.673 125.076 369.407 124.9C366.997 129.25 363.676 133.026 359.671 135.969L358.954 136.495L358.339 136.931L357.711 137.329L356.75 137.919ZM366.102 128.812C365.963 128.941 365.796 129.038 365.615 129.095V129.107C365.701 129.268 365.761 129.441 365.794 129.62C365.906 129.355 366.008 129.086 366.102 128.812Z" fill="#999A1C"/>
<path d="M461.35 168.022L437.356 179.565C435.513 180.452 434.311 182.285 434.231 184.33C434.15 186.375 435.205 188.297 436.971 189.326L493.839 222.545C496.392 224.04 499.669 223.254 501.269 220.763L515.092 199.24" fill="#A1482D"/>
<path d="M591.854 112.344L400.525 1.96239C397.853 0.424366 394.566 0.428254 391.898 1.97259C389.23 3.51693 387.587 6.36762 387.586 9.45283V124.285C387.586 126.851 388.953 129.222 391.173 130.505L595.146 248.39C596.578 249.221 598.345 249.222 599.778 248.393C601.211 247.565 602.093 246.032 602.09 244.375V130.018C602.084 122.717 598.18 115.976 591.854 112.344Z" fill="#F47B56"/>
<path d="M400.537 10.6457L586.089 117.525C590.122 119.85 592.608 124.154 592.61 128.812V214.888C592.607 216.564 591.714 218.112 590.265 218.953C588.816 219.793 587.031 219.798 585.577 218.967L396.348 110.304C394.907 109.477 394.017 107.941 394.017 106.277V14.4294C394.017 12.8741 394.844 11.4365 396.188 10.6567C397.532 9.87678 399.189 9.87258 400.537 10.6457Z" fill="white"/>
<ellipse cx="477.738" cy="168.465" rx="4.03558" ry="4.61719" transform="rotate(-10.9 477.738 168.465)" fill="#AB643C"/>
<path opacity="0.32" d="M450.41 127.427L536.639 179.296L579.235 154.503L503.126 110.15" fill="url(#paint3_linear_2_2)"/>
<path d="M556.97 117.102L463.746 60.1928C462.73 59.6044 461.474 59.6147 460.468 60.2199C459.461 60.8251 458.862 61.9296 458.903 63.1043V95.5287C458.896 96.7218 459.513 97.8317 460.53 98.453L553.742 154.157C554.739 154.724 555.962 154.717 556.952 154.138C557.942 153.559 558.549 152.496 558.546 151.348L559.033 121.117C559.106 119.507 558.321 117.979 556.97 117.102Z" fill="#E2AC00"/>
<path d="M534.667 133.789C538.01 138.47 543.89 139.779 547.785 136.726C551.679 133.673 552.128 127.402 548.784 122.733C545.44 118.064 539.56 116.743 535.666 119.796C531.771 122.848 531.323 129.107 534.667 133.789Z" fill="white"/>
<path d="M525.52 111.318L487.497 88.3974C486.82 88.0802 486.014 88.3307 485.635 88.9757C485.257 89.6207 485.431 90.4482 486.037 90.8857L524.059 113.806C524.736 114.123 525.543 113.873 525.921 113.228C526.3 112.583 526.126 111.755 525.52 111.318Z" fill="#F2F2F2"/>
<path d="M523.957 120.629L471.548 89.0387C470.885 88.8068 470.152 89.0842 469.808 89.6969C469.464 90.3096 469.609 91.081 470.151 91.527L522.496 123.13C523.173 123.448 523.98 123.197 524.358 122.552C524.737 121.907 524.563 121.08 523.957 120.642V120.629Z" fill="#F2F2F2"/>
<path d="M538.369 123.387L445.196 66.4904C444.18 65.902 442.924 65.9123 441.918 66.5175C440.911 67.1227 440.312 68.2272 440.353 69.4019V101.813C440.338 103.009 440.951 104.124 441.968 104.751L535.179 160.454C536.187 161.034 537.429 161.025 538.427 160.429C539.426 159.833 540.025 158.745 539.996 157.581L540.483 127.35C540.526 125.748 539.723 124.242 538.369 123.387Z" fill="#F47B56"/>
<path d="M516.065 140.074C519.409 144.755 525.289 146.063 529.184 143.011C533.078 139.958 533.526 133.686 530.183 129.018C526.839 124.349 520.959 123.028 517.065 126.08C513.17 129.133 512.722 135.392 516.065 140.074Z" fill="white"/>
<path d="M506.918 117.602L468.87 94.6822C468.194 94.3649 467.387 94.6155 467.008 95.2605C466.63 95.9055 466.804 96.7329 467.41 97.1704L505.432 120.091C506.109 120.408 506.916 120.157 507.294 119.512C507.673 118.867 507.499 118.04 506.893 117.602H506.918Z" fill="#F2F2F2"/>
<path d="M505.343 126.978L452.946 95.3363C452.27 95.0191 451.463 95.2696 451.084 95.9146C450.706 96.5596 450.88 97.3871 451.486 97.8246L503.895 129.415C504.572 129.732 505.378 129.482 505.757 128.837C506.136 128.192 505.962 127.364 505.355 126.927L505.343 126.978Z" fill="#F2F2F2"/>
<path d="M514.989 127.209L421.791 70.3126C420.774 69.7241 419.519 69.7345 418.512 70.3397C417.506 70.9448 416.907 72.0494 416.948 73.2241V105.636C416.94 106.829 417.558 107.939 418.575 108.56L511.786 164.264C512.794 164.844 514.036 164.834 515.035 164.238C516.033 163.643 516.633 162.554 516.603 161.391L517.09 131.16C517.132 129.565 516.334 128.065 514.989 127.209Z" fill="#68E1FD"/>
<path d="M514.989 127.209L421.791 70.3126C420.774 69.7241 419.519 69.7345 418.512 70.3397C417.506 70.9448 416.907 72.0494 416.948 73.2241V105.636C416.94 106.829 417.558 107.939 418.575 108.56L511.786 164.264C512.794 164.844 514.036 164.834 515.035 164.238C516.033 163.643 516.633 162.554 516.603 161.391L517.09 131.16C517.132 129.565 516.334 128.065 514.989 127.209Z" fill="#68E1FD"/>
<path d="M492.673 143.896C496.016 148.577 501.897 149.886 505.791 146.833C509.686 143.78 510.134 137.508 506.79 132.84C503.447 128.171 497.566 126.85 493.672 129.903C489.777 132.955 489.368 139.214 492.673 143.896Z" fill="white"/>
<path d="M483.526 121.425L445.491 98.5043C444.814 98.1871 444.007 98.4377 443.629 99.0827C443.25 99.7276 443.424 100.555 444.03 100.993L482.053 123.913C482.729 124.23 483.536 123.979 483.915 123.335C484.293 122.69 484.119 121.862 483.513 121.425H483.526Z" fill="#F2F2F2"/>
<path d="M481.95 130.749L429.541 99.1585C428.864 98.8413 428.058 99.0918 427.679 99.7368C427.301 100.382 427.475 101.209 428.081 101.647L480.49 133.237C481.166 133.555 481.973 133.304 482.352 132.659C482.73 132.014 482.556 131.187 481.95 130.749Z" fill="#F2F2F2"/>
<path d="M392.672 124.028C386.649 129.218 382.094 135.901 379.464 143.408C374.826 156.235 386.42 177.192 386.42 177.192L404.458 162.891" fill="#FF8F6F"/>
<path d="M390.724 293.602L385.831 290.896L387.112 283.893C387.112 283.893 394.401 284.585 395.042 287.176" fill="#003B94"/>
<path d="M392.518 293.499C393.62 292.82 394.773 292.217 395.913 291.614C398.744 290.062 402.831 288.459 404.573 285.547C405.304 284.342 405.212 282.809 404.342 281.699C401.78 278.595 396.169 283.7 393.299 280.263C392.736 279.583 392.467 268.796 392.467 268.796L381.552 271.746C381.552 271.746 379.707 293.422 379.912 294.756C380.117 296.09 383.871 297.321 383.871 297.321C384.988 297.084 386.055 296.649 387.022 296.039C388.162 295.205 387.124 285.034 388.585 286.458C390.045 287.881 390.686 293.448 390.686 293.448C391.292 293.54 391.907 293.557 392.518 293.499Z" fill="#F47B56"/>
<path d="M411.568 304.081L406.674 301.413L407.955 294.41C407.955 294.41 415.244 295.103 415.885 297.694" fill="#003B94"/>
<path d="M413.412 303.978C414.514 303.298 415.667 302.696 416.807 302.093C419.638 300.541 423.725 298.938 425.467 296.026C426.198 294.821 426.106 293.288 425.237 292.178C422.674 289.074 417.063 294.179 414.194 290.742C413.63 290.062 413.361 279.275 413.361 279.275L402.446 282.225C402.446 282.225 400.589 303.978 400.794 305.261C400.999 306.543 404.752 307.826 404.752 307.826C405.87 307.588 406.937 307.154 407.904 306.543C409.044 305.71 408.006 295.539 409.467 296.962C410.927 298.386 411.568 303.953 411.568 303.953C412.179 304.037 412.799 304.046 413.412 303.978Z" fill="#F47B56"/>
<path d="M376.005 233.614L372.789 276.672C372.789 276.672 377.914 283.752 395.093 279.814L395.259 250.788" fill="#3E2928"/>
<path d="M395.849 242.144C395.477 245.85 395.849 286.74 395.849 286.74C395.849 286.74 400.601 295.641 421.291 286.74L420.996 251.994" fill="#3E2928"/>
<path d="M374.403 247.838C375.813 248.813 376.299 243.798 377.773 244.658C383.132 247.775 388.821 250.287 394.734 252.148H394.862C395.147 252.01 395.475 251.993 395.773 252.102C396.07 252.21 396.31 252.436 396.438 252.725C400.091 253.816 403.809 254.673 407.571 255.29C412.4 256.06 416.397 252.482 421.355 252.238C421.355 233.23 421.445 179.129 413.361 167.586L389.443 159.531C389.328 161.506 377.837 174.845 378.118 191.109C378.439 209.437 376.056 226.727 375.646 232.46C375.582 233.435 374.455 246.8 374.403 247.838Z" fill="#3E2928"/>
<path d="M415.564 145.73L413.361 167.534C413.361 167.534 395.516 168.253 387.829 162.943V144.447" fill="#FF8F6F"/>
<path d="M438.252 131.378L436.433 133.866C437.403 131.842 438.259 129.765 438.995 127.645C439.508 126.196 437.189 125.619 436.677 127.068L436.408 127.812C436.63 127.042 436.839 126.269 437.035 125.49C437.195 124.849 436.805 124.2 436.164 124.041C435.524 123.882 434.876 124.272 434.717 124.913C434.214 126.926 433.611 128.912 432.91 130.865C433.302 129.131 433.584 127.375 433.756 125.606C433.91 124.08 431.514 124.144 431.373 125.606C431.174 127.619 430.814 129.614 430.297 131.57C430.297 130.886 430.233 130.202 430.105 129.518C430.069 129.173 429.887 128.86 429.605 128.658C429.541 128.389 429.464 128.133 429.375 127.863C429.187 127.309 428.629 126.97 428.052 127.058C427.474 127.147 427.044 127.638 427.03 128.222L426.876 137.201C426.443 138.132 425.877 138.996 425.198 139.766C426.351 140.564 427.463 141.42 428.529 142.331C429.48 143.136 430.387 143.993 431.245 144.896C432.014 143.939 432.752 142.964 433.461 141.972C433.549 141.897 433.627 141.811 433.692 141.715C435.827 138.552 438.03 135.439 440.302 132.378C441.25 131.326 439.162 130.159 438.252 131.378Z" fill="#FFB5A9"/>
<path d="M404.24 125.85C404.24 125.85 412.669 128.12 416.09 133.545C418.232 137.3 420.119 141.195 421.739 145.204L427.965 135.52C427.965 135.52 435.524 137.842 438.521 141.562C438.521 141.562 429.554 161.185 421.739 162.866C413.925 164.546 405.623 151.348 405.623 151.348C405.623 151.348 403.907 156.863 404.24 150.976" fill="#FF8F6F"/>
<path d="M409.595 146.82C407.144 144.824 405.295 142.187 404.253 139.202C403.24 135.751 404.509 132.724 405.687 129.518C406.963 126.339 407.708 122.972 407.891 119.552C407.993 116.192 407.609 112.831 407.378 109.483C407.345 109.34 407.345 109.191 407.378 109.047C406.251 105.264 403.945 102.057 399.397 101.672C387.624 100.672 386.958 113.729 387.048 119.039C387.137 124.349 387.701 127.94 383.794 130.159C379.886 132.378 377.068 138.201 380.796 142.908C384.524 147.615 381.18 145.897 378.695 150.078C376.21 154.259 376.85 159.48 381.949 161.365C387.048 163.25 410.748 159.71 412.925 157.517C413.698 156.634 414.098 155.484 414.04 154.311C413.508 151.359 411.93 148.699 409.595 146.82Z" fill="#007F68"/>
<path fill-rule="evenodd" clip-rule="evenodd" d="M424.506 48.8802C424.325 45.3837 423.171 42.0075 421.176 39.1324C419.4 36.2591 416.777 34.0092 413.668 32.6937C412.076 31.9826 410.277 31.8911 408.621 32.4372C407.041 32.9971 405.738 34.1457 404.983 35.6437C404.073 37.4293 403.666 39.4288 403.804 41.4283C403.915 43.8067 404.471 46.1431 405.444 48.3159C406.415 50.5909 407.758 52.6887 409.415 54.5237C410.814 56.1552 412.567 57.445 414.54 58.2946C415.234 58.572 415.962 58.7575 416.705 58.8461C417.27 58.922 417.843 58.922 418.408 58.8461C418.85 58.7848 419.281 58.664 419.69 58.4869C419.949 58.3846 420.202 58.2646 420.445 58.1278L420.702 57.9483L419.152 55.0624L418.639 55.3446C418.118 55.5853 417.546 55.6912 416.974 55.6524C416.095 55.6617 415.223 55.4915 414.412 55.1522C412.08 54.082 410.16 52.2811 408.941 50.0217C407.411 47.7343 406.525 45.0755 406.379 42.3261C406.133 40.1398 406.891 37.9598 408.442 36.4004C409.911 35.1008 412.023 34.8313 413.771 35.7206C416.124 36.6998 418.11 38.3961 419.446 40.5689C420.933 42.7045 421.79 45.2157 421.919 47.8156C422.013 50.4407 421.44 51.5096 420.202 51.0222C419.761 50.831 419.392 50.5027 419.152 50.0859C418.868 49.6544 418.708 49.1529 418.69 48.6365L418.434 41.4283L415.872 40.4278V41.5693L415.641 41.1589C415.378 40.7834 415.068 40.4429 414.719 40.1456C414.309 39.7737 413.836 39.4783 413.323 39.2735C412.286 38.7631 411.041 38.958 410.21 39.7609C409.265 40.8045 408.828 42.2129 409.018 43.6087C409.072 45.3326 409.585 47.0108 410.504 48.4698C411.267 49.8125 412.445 50.8704 413.861 51.4839C414.454 51.7529 415.116 51.8335 415.757 51.7148C416.14 51.6585 416.502 51.5038 416.807 51.2659C416.927 51.134 417.031 50.9875 417.115 50.8298L417.422 51.4326C417.718 51.951 418.089 52.4222 418.524 52.8306C419.008 53.3332 419.593 53.7267 420.24 53.985C421.301 54.5503 422.609 54.3232 423.418 53.4335C424.341 52.1074 424.73 50.4811 424.506 48.8802ZM416.051 46.3535C416.136 47.031 415.946 47.7142 415.526 48.2517C415.133 48.6423 414.533 48.7355 414.04 48.4826C413.354 48.1849 412.782 47.6717 412.413 47.0204C411.964 46.3036 411.712 45.4806 411.683 44.6348C411.593 43.9624 411.799 43.2843 412.246 42.775C412.678 42.3849 413.306 42.3031 413.822 42.5698C414.48 42.8561 415.025 43.3521 415.372 43.9806C415.797 44.7006 416.031 45.5175 416.051 46.3535Z" fill="#F47B56"/>
<path fill-rule="evenodd" clip-rule="evenodd" d="M575.764 187.761C575.586 184.264 574.432 180.887 572.433 178.013C570.721 175.108 568.152 172.805 565.079 171.421C563.482 170.715 561.68 170.623 560.019 171.164C558.44 171.732 557.138 172.884 556.381 174.383C555.471 176.164 555.063 178.16 555.202 180.155C555.312 182.534 555.869 184.87 556.842 187.043C557.813 189.322 559.155 191.424 560.813 193.263C562.214 194.89 563.966 196.176 565.938 197.022C566.628 197.303 567.351 197.492 568.09 197.586C568.66 197.661 569.237 197.661 569.807 197.586C570.246 197.517 570.676 197.397 571.088 197.227C571.348 197.124 571.6 197.004 571.844 196.868L572.1 196.688L570.55 193.802L570.037 194.084C569.515 194.32 568.944 194.426 568.372 194.392C567.492 194.392 566.622 194.217 565.81 193.879C563.482 192.861 561.542 191.121 560.275 188.915C558.743 186.629 557.857 183.97 557.713 181.22C557.441 179.029 558.182 176.833 559.725 175.256C561.198 173.964 563.308 173.7 565.054 174.589C567.4 175.568 569.38 177.259 570.716 179.424C572.202 181.565 573.059 184.08 573.189 186.684C573.266 189.313 572.74 190.378 571.459 189.89C571.018 189.699 570.65 189.371 570.409 188.954C570.129 188.52 569.97 188.02 569.948 187.505L569.691 180.296L567.129 179.309V180.45L566.886 180.04C566.622 179.661 566.312 179.316 565.963 179.014C565.554 178.641 565.081 178.346 564.567 178.142C563.534 177.633 562.294 177.828 561.467 178.629C560.515 179.669 560.078 181.08 560.275 182.477C560.329 184.207 560.847 185.89 561.774 187.351C562.535 188.698 563.713 189.761 565.131 190.378C565.72 190.647 566.379 190.723 567.014 190.596C567.398 190.542 567.76 190.387 568.064 190.147C568.182 190.013 568.285 189.867 568.372 189.711L568.679 190.313C568.978 190.83 569.349 191.301 569.781 191.712C570.268 192.211 570.852 192.604 571.498 192.866C572.559 193.426 573.864 193.2 574.675 192.314C575.598 190.988 575.987 189.362 575.764 187.761ZM567.321 185.234C567.402 185.914 567.208 186.597 566.783 187.133C566.387 187.519 565.788 187.607 565.297 187.351C564.61 187.048 564.039 186.531 563.67 185.876C563.221 185.163 562.969 184.345 562.94 183.503C562.851 182.828 563.061 182.148 563.517 181.643C563.951 181.257 564.578 181.181 565.092 181.451C565.748 181.736 566.289 182.233 566.63 182.862C567.061 183.58 567.299 184.397 567.321 185.234Z" fill="#F47B56"/>
<g style="mix-blend-mode:multiply" opacity="0.25">
<path d="M317.139 232.704L273.774 208.001L230.423 232.755C230.423 232.755 254.545 247.838 276.132 260.511C289.839 250.814 302.022 239.72 317.139 232.704Z" fill="url(#paint4_linear_2_2)"/>
</g>
<g filter="url(#filter0_d_2_2)">
<path fill-rule="evenodd" clip-rule="evenodd" d="M238.93 163.881V217.75L280.899 241.786L328.286 213.761V159.892" fill="#FF9271"/>
</g>
<path d="M280.899 187.917V241.786L328.286 213.761V159.892L280.899 187.917Z" fill="#DF5C34"/>
<path d="M238.93 163.881L287.624 136.125L328.286 159.892L280.899 187.917L238.93 163.881Z" fill="#F47B56"/>
<path fill-rule="evenodd" clip-rule="evenodd" d="M296.22 151.619C291.879 149.242 286.95 148.156 282.013 148.489C276.833 148.581 271.773 150.06 267.358 152.773C265.042 154.092 263.2 156.107 262.092 158.532C261.169 160.632 261.169 163.024 262.092 165.125C263.21 167.507 265.072 169.461 267.396 170.691C270.276 172.319 273.451 173.357 276.735 173.744C280.349 174.244 284.018 174.179 287.612 173.552C290.909 173.05 294.077 171.908 296.938 170.191C297.931 169.584 298.854 168.87 299.692 168.062C300.328 167.459 300.895 166.788 301.383 166.061C301.721 165.522 301.997 164.945 302.203 164.342C302.346 163.967 302.462 163.581 302.549 163.188C302.557 163.043 302.557 162.897 302.549 162.752L297.796 162.483L297.617 163.291C297.359 164.105 296.921 164.85 296.336 165.471C295.461 166.487 294.427 167.353 293.274 168.036C289.942 170.012 286.128 171.024 282.257 170.961C278.368 171.125 274.509 170.206 271.111 168.306C267.998 166.472 266.397 164.188 266.397 161.623C266.371 159.007 267.87 156.754 270.893 154.864C274.216 152.838 278.021 151.744 281.911 151.696C285.581 151.454 289.244 152.269 292.467 154.043C295.499 155.839 296.131 157.288 294.363 158.391C293.067 159.089 291.508 159.089 290.212 158.391L281.872 153.479L278.272 155.723L279.554 156.493H278.849C278.159 156.531 277.476 156.647 276.812 156.839C275.98 157.055 275.185 157.397 274.455 157.852C272.904 158.589 271.909 160.148 271.893 161.867C271.97 163.457 272.994 164.843 274.993 166.023C277.106 167.237 279.513 167.845 281.949 167.78C284.304 167.826 286.624 167.213 288.649 166.01C289.518 165.517 290.243 164.805 290.75 163.945C291.055 163.482 291.232 162.946 291.263 162.393C291.234 162.159 291.174 161.93 291.083 161.713L292.057 161.79C292.949 161.816 293.84 161.726 294.709 161.521C295.766 161.307 296.776 160.908 297.694 160.341C299.628 159.173 300.448 157.788 300.256 156.198C300.064 154.607 298.706 153.081 296.22 151.619ZM285.075 159.751C285.906 160.112 286.506 160.861 286.676 161.752H286.728C286.741 162.571 286.268 163.321 285.523 163.663C284.539 164.244 283.412 164.538 282.269 164.509C281.081 164.537 279.907 164.24 278.875 163.65C278.054 163.29 277.48 162.526 277.363 161.636C277.382 160.782 277.877 160.01 278.644 159.635C279.579 159.075 280.656 158.799 281.744 158.84C282.916 158.842 284.065 159.156 285.075 159.751Z" fill="#3E2928"/>
<defs>
<filter id="filter0_d_2_2" x="188.93" y="134.892" width="189.355" height="181.895" filterUnits="userSpaceOnUse" color-interpolation-filters="sRGB">
<feFlood flood-opacity="0" result="BackgroundImageFix"/>
<feColorMatrix in="SourceAlpha" type="matrix" values="0 0 0 0 0 0 0 0 0 0 0 0 0 0 0 0 0 0 127 0" result="hardAlpha"/>
<feOffset dy="25"/>
<feGaussianBlur stdDeviation="25"/>
<feColorMatrix type="matrix" values="0 0 0 0 0.209139 0 0 0 0 0.0691446 0 0 0 0 0.478091 0 0 0 0.497159 0"/>
<feBlend mode="normal" in2="BackgroundImageFix" result="effect1_dropShadow_2_2"/>
<feBlend mode="normal" in="SourceGraphic" in2="effect1_dropShadow_2_2" result="shape"/>
</filter>
<linearGradient id="paint0_linear_2_2" x1="443.715" y1="185.543" x2="432.685" y2="218.24" gradientUnits="userSpaceOnUse">
<stop stop-color="#78B46A"/>
<stop offset="0.03" stop-color="#7F3500"/>
<stop offset="1" stop-color="white"/>
</linearGradient>
<linearGradient id="paint1_linear_2_2" x1="371.536" y1="252.477" x2="352.981" y2="310.838" gradientUnits="userSpaceOnUse">
<stop stop-color="#78B46A"/>
<stop offset="0.03" stop-color="#7F3500"/>
<stop offset="1" stop-color="white"/>
</linearGradient>
<linearGradient id="paint2_linear_2_2" x1="325.7" y1="130.002" x2="308.536" y2="169.625" gradientUnits="userSpaceOnUse">
<stop stop-color="#78B46A"/>
<stop offset="0.03" stop-color="#7F3500"/>
<stop offset="1" stop-color="white"/>
</linearGradient>
<linearGradient id="paint3_linear_2_2" x1="566.656" y1="165.452" x2="559.951" y2="148.459" gradientUnits="userSpaceOnUse">
<stop stop-color="white" stop-opacity="0.01"/>
<stop offset="0.99" stop-color="#DC841E"/>
</linearGradient>
<linearGradient id="paint4_linear_2_2" x1="260.555" y1="188.349" x2="241.033" y2="246.801" gradientUnits="userSpaceOnUse">
<stop stop-color="#78B46A"/>
<stop offset="0.03" stop-color="#7F3500"/>
<stop offset="1" stop-color="white"/>
</linearGradient>
</defs>
</svg>
