<svg width="240" height="212" viewBox="0 0 240 212" fill="none" xmlns="http://www.w3.org/2000/svg">
<path opacity="0.0991676" d="M116.454 209.641L4.66655 141.832C1.10762 139.778 -1.94289 136.413 1.52479 134.205L113.709 67.8413C115.391 66.7708 117.946 66.0683 119.66 67.092L236.988 136.995C240.547 139.116 241.186 145.024 237.64 147.164L131.185 209.534C126.638 212.241 121.037 212.281 116.454 209.641Z" fill="#6862E6"/>
<path d="M115.994 177.689L5.67604 112.512C2.16387 110.538 -0.846563 107.303 2.57555 105.181L113.286 41.3927C114.946 40.3637 117.467 39.6885 119.159 40.6724L234.945 107.863C238.457 109.901 239.087 115.58 235.588 117.637L130.532 177.586C126.045 180.188 120.517 180.227 115.994 177.689Z" fill="#5B36A0"/>
<path d="M115.994 174.681L5.67604 109.504C2.16387 107.529 -0.846563 104.295 2.57555 102.172L113.286 38.3843C114.946 37.3554 117.467 36.6801 119.159 37.664L234.945 104.854C238.457 106.893 239.087 112.571 235.588 114.629L130.532 174.578C126.045 177.18 120.517 177.219 115.994 174.681Z" fill="#6862E6"/>
<path d="M125.09 88.6869L103.322 101.105C103.322 101.105 136.855 121.562 143.712 124.443L156.249 106.436" fill="url(#paint0_linear_5_5)"/>
<path d="M117.57 148.263L95.796 135.87L74.0219 148.289C74.0219 148.289 85.3624 155.208 96.2013 161.562C103.084 156.694 109.973 151.774 117.57 148.263Z" fill="url(#paint1_linear_5_5)"/>
<path d="M70.6576 71.735L56.847 79.6128C56.847 79.6128 58.0177 86.8348 64.8748 89.7158L82.9567 78.1402" fill="url(#paint2_linear_5_5)"/>
<path d="M85.7484 73.7479C85.7484 76.987 82.0189 79.6128 77.4182 79.6128C72.8176 79.6128 69.0881 76.987 69.0881 73.7479C69.0881 70.5087 72.8176 67.8829 77.4182 67.8829C82.0189 67.8829 85.7484 70.5087 85.7484 73.7479Z" fill="#68E1FD"/>
<path d="M83.6514 70.288C83.6514 71.6981 80.8578 72.8411 77.4118 72.8411C73.9658 72.8411 71.1722 71.6981 71.1722 70.288C71.1722 68.878 73.9658 67.735 77.4118 67.735C80.8578 67.735 83.6514 68.878 83.6514 70.288Z" fill="#974C26"/>
<path fill-rule="evenodd" clip-rule="evenodd" d="M77.058 62.5774C77.1481 63.7285 77.1867 64.8796 77.1867 66.0308C77.1802 67.4713 77.1095 68.9118 76.9551 70.3459C76.4598 69.6578 75.9709 68.9375 75.4563 68.1273C74.7938 67.0919 74.1762 66.0308 73.6102 64.9439C73.0839 63.9775 72.6344 62.9712 72.2658 61.9343C71.8558 60.8081 71.5269 59.654 71.2816 58.4809C71.2173 58.1979 71.1594 57.8635 71.1079 57.5548V57.1754C71.0564 56.5709 71.005 55.9278 71.005 55.2847C70.9764 53.0977 71.399 50.9282 72.2465 48.9117C74.4987 52.1772 76.0172 55.8914 76.6978 59.7992C76.7407 60.0307 76.7814 60.2644 76.82 60.5002C76.82 60.4552 76.9101 60.9246 76.9101 61.0983L76.9744 61.6835C77.0044 61.9793 77.0323 62.2773 77.058 62.5774ZM73.9126 53.085C73.9126 53.0848 73.9126 53.0851 73.9126 53.085L73.9061 53.0854C73.9082 53.0852 73.9104 53.0851 73.9126 53.085ZM73.9126 53.085C74.0709 53.0761 74.2295 53.0936 74.3821 53.1368C74.2277 52.9653 74.0712 52.7981 73.9125 52.6352C73.9455 52.7833 73.9455 52.9369 73.9126 53.085Z" fill="#999A1C"/>
<path fill-rule="evenodd" clip-rule="evenodd" d="M81.0848 63.9407C80.538 64.989 79.972 65.9472 79.3287 66.9182C78.5504 68.1337 77.6884 69.3041 76.8329 70.4424C76.775 69.5999 76.775 68.7253 76.775 67.7671C76.775 66.5388 76.8264 65.3169 76.9422 64.0951C77.0216 62.997 77.1872 61.9068 77.4375 60.8346C77.7003 59.6645 78.0464 58.5148 78.4732 57.3941C78.589 57.0983 78.7112 56.8089 78.8334 56.5195L78.8656 56.4166L78.9942 56.1786C79.2837 55.6191 79.5924 55.0661 79.9269 54.5323C81.0886 52.6743 82.6216 51.0761 84.4297 49.8377C84.5603 53.8057 83.8295 57.7548 82.2877 61.4134C82.1976 61.6235 82.1054 61.8378 82.0111 62.0565L81.7602 62.6095L81.4965 63.1433C81.3635 63.4091 81.2263 63.6749 81.0848 63.9407ZM83.7929 53.8635C83.7496 54.0087 83.6749 54.1426 83.5742 54.2558C83.6997 54.322 83.8146 54.4065 83.9151 54.5066C83.8808 54.3008 83.8401 54.0864 83.7929 53.8635Z" fill="#999A1C"/>
<path fill-rule="evenodd" clip-rule="evenodd" d="M81.2134 68.7446C80.5745 69.1176 79.9312 69.4649 79.2837 69.7864C78.4732 70.1916 77.6434 70.5517 76.8136 70.899C77.058 70.4295 77.3346 69.9472 77.6434 69.4327C78.0486 68.7896 78.4732 68.1465 78.9299 67.5034C79.3268 66.936 79.7677 66.4006 80.2486 65.9022C80.769 65.3549 81.3279 64.8455 81.921 64.378L82.397 64.0243L82.4485 63.9793L82.5964 63.8893C82.9374 63.6835 83.2783 63.4841 83.6321 63.3041C84.8557 62.6753 86.1958 62.3054 87.5688 62.2172C86.3587 64.3981 84.691 66.2914 82.6801 67.7671L82.3198 68.0308L82.0111 68.2494L81.6959 68.4488L81.2134 68.7446ZM85.9092 64.1787C85.8392 64.2433 85.7557 64.2917 85.6648 64.3202V64.3266C85.7077 64.4073 85.738 64.494 85.7548 64.5838C85.8106 64.4509 85.862 64.3159 85.9092 64.1787Z" fill="#999A1C"/>
<path fill-rule="evenodd" clip-rule="evenodd" d="M77.058 62.5774C77.1481 63.7285 77.1867 64.8796 77.1867 66.0308C77.1802 67.4713 77.1095 68.9118 76.9551 70.3459C76.4598 69.6578 75.9709 68.9375 75.4563 68.1273C74.7938 67.0919 74.1762 66.0308 73.6102 64.9439C73.0839 63.9775 72.6344 62.9712 72.2658 61.9343C71.8558 60.8081 71.5269 59.654 71.2816 58.4809C71.2173 58.1979 71.1594 57.8635 71.1079 57.5548V57.1754C71.0564 56.5709 71.005 55.9278 71.005 55.2847C70.9764 53.0977 71.399 50.9282 72.2465 48.9117C74.4987 52.1772 76.0172 55.8914 76.6978 59.7992C76.7407 60.0307 76.7814 60.2644 76.82 60.5002C76.82 60.4552 76.9101 60.9246 76.9101 61.0983L76.9744 61.6835C77.0044 61.9793 77.0323 62.2773 77.058 62.5774ZM73.9126 53.085C73.9126 53.0848 73.9126 53.0851 73.9126 53.085L73.9061 53.0854C73.9082 53.0852 73.9104 53.0851 73.9126 53.085ZM73.9126 53.085C74.0709 53.0761 74.2295 53.0936 74.3821 53.1368C74.2277 52.9653 74.0712 52.7981 73.9125 52.6352C73.9455 52.7833 73.9455 52.9369 73.9126 53.085Z" fill="#999A1C"/>
<path fill-rule="evenodd" clip-rule="evenodd" d="M81.0848 63.9407C80.538 64.989 79.972 65.9472 79.3287 66.9182C78.5504 68.1337 77.6884 69.3041 76.8329 70.4424C76.775 69.5999 76.775 68.7253 76.775 67.7671C76.775 66.5388 76.8264 65.3169 76.9422 64.0951C77.0216 62.997 77.1872 61.9068 77.4375 60.8346C77.7003 59.6645 78.0464 58.5148 78.4732 57.3941C78.589 57.0983 78.7112 56.8089 78.8334 56.5195L78.8656 56.4166L78.9942 56.1786C79.2837 55.6191 79.5924 55.0661 79.9269 54.5323C81.0886 52.6743 82.6216 51.0761 84.4297 49.8377C84.5603 53.8057 83.8295 57.7548 82.2877 61.4134C82.1976 61.6235 82.1054 61.8378 82.0111 62.0565L81.7602 62.6095L81.4965 63.1433C81.3635 63.4091 81.2263 63.6749 81.0848 63.9407ZM83.7929 53.8635C83.7496 54.0087 83.6749 54.1426 83.5742 54.2558C83.6997 54.322 83.8146 54.4065 83.9151 54.5066C83.8808 54.3008 83.8401 54.0864 83.7929 53.8635Z" fill="#999A1C"/>
<path fill-rule="evenodd" clip-rule="evenodd" d="M81.2134 68.7446C80.5745 69.1176 79.9312 69.4649 79.2837 69.7864C78.4732 70.1916 77.6434 70.5517 76.8136 70.899C77.058 70.4295 77.3346 69.9472 77.6434 69.4327C78.0486 68.7896 78.4732 68.1465 78.9299 67.5034C79.3268 66.936 79.7677 66.4006 80.2486 65.9022C80.769 65.3549 81.3279 64.8455 81.921 64.378L82.397 64.0243L82.4485 63.9793L82.5964 63.8893C82.9374 63.6835 83.2783 63.4841 83.6321 63.3041C84.8557 62.6753 86.1958 62.3054 87.5688 62.2172C86.3587 64.3981 84.691 66.2914 82.6801 67.7671L82.3198 68.0308L82.0111 68.2494L81.6959 68.4488L81.2134 68.7446ZM85.9092 64.1787C85.8392 64.2433 85.7557 64.2917 85.6648 64.3202V64.3266C85.7077 64.4073 85.738 64.494 85.7548 64.5838C85.8106 64.4509 85.862 64.3159 85.9092 64.1787Z" fill="#999A1C"/>
<path d="M133.735 83.838L121.687 89.6258C120.762 90.0703 120.158 90.9894 120.118 92.0147C120.077 93.04 120.607 94.0037 121.494 94.5197L150.048 111.176C151.33 111.925 152.976 111.531 153.779 110.282L160.72 99.4908" fill="#A1482D"/>
<path d="M199.264 55.9214L103.193 0.576998C101.852 -0.194156 100.201 -0.192207 98.8619 0.582114C97.5224 1.35643 96.6972 2.78575 96.6966 4.33265V61.9086C96.6965 63.1952 97.3831 64.3842 98.4977 65.0275L200.917 124.134C201.636 124.551 202.523 124.551 203.242 124.136C203.962 123.72 204.405 122.952 204.403 122.121V64.7832C204.4 61.1224 202.44 57.7425 199.264 55.9214Z" fill="#F47B56"/>
<path d="M103.2 4.93072L196.369 58.5195C198.394 59.6851 199.642 61.8428 199.643 64.1787V107.336C199.641 108.177 199.193 108.953 198.466 109.374C197.738 109.796 196.842 109.798 196.112 109.382L101.096 54.8989C100.373 54.4841 99.9259 53.7138 99.9257 52.8796V6.82784C99.9258 6.04803 100.341 5.32727 101.016 4.93624C101.691 4.54521 102.523 4.54311 103.2 4.93072Z" fill="white"/>
<path d="M143.953 83.6772C144.195 84.9327 143.5 86.1221 142.401 86.3337C141.303 86.5453 140.216 85.699 139.974 84.4435C139.732 83.1879 140.427 81.9986 141.526 81.787C142.625 81.5754 143.712 82.4216 143.953 83.6772Z" fill="#AB643C"/>
<path d="M128.242 63.4841L171.539 89.4907L192.927 77.0598L154.712 54.8217" fill="url(#paint3_linear_5_5)"/>
<path d="M181.748 58.3073L134.938 29.7733C134.428 29.4783 133.797 29.4835 133.292 29.7869C132.787 30.0903 132.486 30.6441 132.507 31.2331V47.4905C132.503 48.0887 132.813 48.6452 133.324 48.9567L180.127 76.8861C180.627 77.1705 181.241 77.1669 181.739 76.8766C182.236 76.5863 182.541 76.0534 182.539 75.4778L182.783 60.3201C182.82 59.513 182.426 58.7469 181.748 58.3073Z" fill="#E2AC00"/>
<path d="M170.549 66.6739C172.228 69.0211 175.18 69.6771 177.136 68.1465C179.091 66.616 179.316 63.4713 177.637 61.1304C175.958 58.7896 173.006 58.1272 171.05 59.6577C169.095 61.1883 168.87 64.3266 170.549 66.6739Z" fill="white"/>
<path d="M165.956 55.4069L146.864 43.9149C146.524 43.7558 146.119 43.8815 145.929 44.2048C145.739 44.5282 145.826 44.9431 146.131 45.1625L165.223 56.6545C165.562 56.8136 165.967 56.6879 166.157 56.3646C166.347 56.0412 166.26 55.6263 165.956 55.4069Z" fill="#F2F2F2"/>
<path d="M165.171 60.0758L138.855 44.2364C138.523 44.1202 138.155 44.2593 137.982 44.5665C137.809 44.8737 137.882 45.2604 138.154 45.484L164.438 61.3298C164.778 61.4888 165.183 61.3632 165.373 61.0398C165.563 60.7164 165.475 60.3015 165.171 60.0822V60.0758Z" fill="#F2F2F2"/>
<path d="M172.408 61.4584L125.624 32.9309C125.113 32.6358 124.483 32.641 123.978 32.9445C123.472 33.2479 123.172 33.8017 123.192 34.3907V50.6416C123.185 51.2408 123.492 51.8 124.003 52.1143L170.806 80.0437C171.312 80.3345 171.936 80.3296 172.437 80.031C172.938 79.7324 173.239 79.1865 173.225 78.6032L173.469 63.4455C173.491 62.6423 173.087 61.8871 172.408 61.4584Z" fill="#F47B56"/>
<path d="M161.209 69.825C162.887 72.1723 165.84 72.8282 167.796 71.2977C169.751 69.7671 169.976 66.6224 168.297 64.2816C166.618 61.9407 163.666 61.2783 161.71 62.8089C159.755 64.3394 159.53 67.4777 161.209 69.825Z" fill="white"/>
<path d="M156.616 58.5581L137.511 47.066C137.171 46.907 136.766 47.0326 136.576 47.356C136.386 47.6794 136.473 48.0943 136.778 48.3136L155.87 59.8057C156.209 59.9647 156.614 59.8391 156.804 59.5157C156.995 59.1923 156.907 58.7774 156.603 58.5581H156.616Z" fill="#F2F2F2"/>
<path d="M155.825 63.259L129.515 47.394C129.176 47.2349 128.771 47.3606 128.581 47.684C128.39 48.0074 128.478 48.4222 128.782 48.6416L155.098 64.4809C155.437 64.64 155.842 64.5144 156.033 64.191C156.223 63.8676 156.135 63.4527 155.831 63.2333L155.825 63.259Z" fill="#F2F2F2"/>
<path d="M160.668 63.3748L113.871 34.8473C113.361 34.5523 112.731 34.5575 112.225 34.8609C111.72 35.1643 111.419 35.7181 111.44 36.3071V52.558C111.436 53.1562 111.746 53.7127 112.257 54.0243L159.06 81.9537C159.566 82.2445 160.19 82.2396 160.691 81.941C161.192 81.6423 161.494 81.0965 161.479 80.5132L161.723 65.3555C161.744 64.5558 161.344 63.8039 160.668 63.3748Z" fill="#68E1FD"/>
<path d="M160.668 63.3748L113.871 34.8473C113.361 34.5523 112.731 34.5575 112.225 34.8609C111.72 35.1643 111.419 35.7181 111.44 36.3071V52.558C111.436 53.1562 111.746 53.7127 112.257 54.0243L159.06 81.9537C159.566 82.2445 160.19 82.2396 160.691 81.941C161.192 81.6423 161.494 81.0965 161.479 80.5132L161.723 65.3555C161.744 64.5558 161.344 63.8039 160.668 63.3748Z" fill="#68E1FD"/>
<path d="M149.463 71.7414C151.142 74.0887 154.094 74.7447 156.05 73.2141C158.005 71.6835 158.23 68.5388 156.551 66.198C154.873 63.8571 151.92 63.1947 149.965 64.7253C148.009 66.2559 147.803 69.3941 149.463 71.7414Z" fill="white"/>
<path d="M144.87 60.4745L125.772 48.9824C125.432 48.8234 125.027 48.949 124.837 49.2724C124.647 49.5958 124.734 50.0107 125.038 50.23L144.13 61.7221C144.47 61.8811 144.875 61.7555 145.065 61.4321C145.255 61.1087 145.168 60.6938 144.863 60.4745H144.87Z" fill="#F2F2F2"/>
<path d="M144.079 65.1497L117.763 49.3104C117.423 49.1514 117.018 49.277 116.828 49.6004C116.638 49.9238 116.726 50.3387 117.03 50.558L143.345 66.3973C143.685 66.5564 144.09 66.4308 144.28 66.1074C144.47 65.784 144.383 65.3691 144.079 65.1497Z" fill="#F2F2F2"/>
<path d="M99.2503 61.7799C96.2263 64.3822 93.9393 67.7331 92.6183 71.497C90.2898 77.9279 96.1112 88.4361 96.1112 88.4361L105.168 81.2656" fill="#FF8F6F"/>
<path d="M98.2726 146.803L95.8153 145.446L96.4586 141.935C96.4586 141.935 100.119 142.282 100.44 143.581" fill="#003B94"/>
<path d="M99.1731 146.752C99.7263 146.411 100.305 146.108 100.878 145.806C102.299 145.028 104.351 144.224 105.226 142.764C105.593 142.16 105.547 141.391 105.11 140.835C103.824 139.279 101.006 141.838 99.5655 140.115C99.2825 139.774 99.1474 134.366 99.1474 134.366L93.6668 135.845C93.6668 135.845 92.7406 146.713 92.8435 147.382C92.9464 148.051 94.8311 148.668 94.8311 148.668C95.3925 148.549 95.9282 148.331 96.4135 148.025C96.986 147.607 96.465 142.507 97.1983 143.221C97.9316 143.935 98.2533 146.726 98.2533 146.726C98.5577 146.772 98.8666 146.781 99.1731 146.752Z" fill="#F47B56"/>
<path d="M108.738 152.057L106.281 150.719L106.924 147.208C106.924 147.208 110.584 147.555 110.906 148.854" fill="#003B94"/>
<path d="M109.665 152.006C110.218 151.665 110.797 151.362 111.369 151.06C112.791 150.282 114.843 149.478 115.718 148.018C116.085 147.414 116.039 146.645 115.602 146.089C114.315 144.533 111.498 147.092 110.057 145.369C109.774 145.028 109.639 139.62 109.639 139.62L104.158 141.099C104.158 141.099 103.226 152.006 103.329 152.649C103.431 153.292 105.316 153.935 105.316 153.935C105.878 153.816 106.413 153.598 106.899 153.292C107.471 152.874 106.95 147.774 107.683 148.488C108.417 149.202 108.738 151.993 108.738 151.993C109.045 152.035 109.356 152.039 109.665 152.006Z" fill="#F47B56"/>
<path d="M90.8816 116.726L89.267 138.314C89.267 138.314 91.84 141.864 100.466 139.89L100.55 125.337" fill="#3E2928"/>
<path d="M100.846 121.002C100.659 122.861 100.846 143.362 100.846 143.362C100.846 143.362 103.232 147.825 113.621 143.362L113.473 125.941" fill="#3E2928"/>
<path d="M90.0775 123.857C90.7851 124.346 91.0295 121.832 91.7692 122.263C94.4605 123.825 97.3169 125.085 100.286 126.018H100.35C100.493 125.949 100.658 125.94 100.807 125.995C100.957 126.05 101.077 126.162 101.141 126.308C102.976 126.855 104.843 127.284 106.731 127.594C109.156 127.98 111.163 126.185 113.653 126.063C113.653 116.533 113.698 89.4071 109.639 83.6193L97.6293 79.5807C97.5714 80.5711 91.8014 87.2592 91.9429 95.4136C92.1037 104.603 90.9073 113.272 90.7014 116.147C90.6693 116.636 90.1032 123.337 90.0775 123.857Z" fill="#3E2928"/>
<path d="M110.745 72.661L109.639 83.5936C109.639 83.5936 100.678 83.9537 96.8188 81.2913V72.0179" fill="#FF8F6F"/>
<path d="M122.137 65.4649L121.224 66.7124C121.711 65.6977 122.14 64.6564 122.51 63.5935C122.768 62.8668 121.603 62.5774 121.346 63.3041L121.211 63.6771C121.323 63.2912 121.428 62.9032 121.526 62.5131C121.606 62.1916 121.41 61.8663 121.089 61.7864C120.767 61.7065 120.442 61.9022 120.362 62.2237C120.11 63.2328 119.807 64.2287 119.455 65.2076C119.651 64.3385 119.793 63.4578 119.879 62.5709C119.957 61.8057 118.754 61.8378 118.683 62.5709C118.583 63.5806 118.402 64.5806 118.143 65.5613C118.143 65.2183 118.111 64.8754 118.046 64.5324C118.028 64.3594 117.937 64.2024 117.795 64.1015C117.763 63.9665 117.725 63.8378 117.68 63.7028C117.585 63.425 117.305 63.2549 117.015 63.2993C116.725 63.3436 116.509 63.5897 116.502 63.8829L116.425 68.3845C116.207 68.8513 115.924 69.2845 115.583 69.6707C116.161 70.071 116.72 70.5002 117.255 70.9568C117.733 71.3605 118.188 71.7899 118.619 72.243C119.005 71.7629 119.376 71.2741 119.732 70.7768C119.776 70.7393 119.815 70.6961 119.847 70.6482C120.919 69.0619 122.026 67.5013 123.167 65.9665C123.643 65.4391 122.594 64.8539 122.137 65.4649Z" fill="#FFB5A9"/>
<path d="M105.059 62.6931C105.059 62.6931 109.292 63.8314 111.009 66.5517C112.085 68.4345 113.032 70.3875 113.846 72.3974L116.972 67.542C116.972 67.542 120.767 68.706 122.272 70.571C122.272 70.571 117.77 80.4103 113.846 81.2527C109.922 82.0952 105.754 75.4778 105.754 75.4778C105.754 75.4778 104.892 78.2431 105.059 75.2913" fill="#FF8F6F"/>
<path d="M107.748 73.2077C106.517 72.2069 105.589 70.8845 105.065 69.3877C104.557 67.6578 105.194 66.1401 105.786 64.5324C106.426 62.9388 106.8 61.2506 106.892 59.5356C106.944 57.8507 106.751 56.1658 106.635 54.4873C106.618 54.4153 106.618 54.3406 106.635 54.2686C106.069 52.3715 104.911 50.7638 102.627 50.5709C96.7159 50.0693 96.3814 56.6159 96.4264 59.2783C96.4714 61.9407 96.7545 63.7414 94.7925 64.8539C92.8306 65.9665 91.4155 68.8861 93.2873 71.2462C95.1592 73.6064 93.4803 72.7446 92.2324 74.8411C90.9845 76.9376 91.3061 79.555 93.8663 80.5003C96.4264 81.4457 108.327 79.6707 109.42 78.571C109.808 78.128 110.009 77.5515 109.98 76.9633C109.713 75.4834 108.92 74.1496 107.748 73.2077Z" fill="#007F68"/>
<path fill-rule="evenodd" clip-rule="evenodd" d="M115.235 24.1013C115.144 22.3481 114.565 20.6553 113.563 19.2138C112.671 17.7731 111.354 16.645 109.793 15.9855C108.994 15.6289 108.09 15.583 107.259 15.8568C106.466 16.1376 105.811 16.7135 105.432 17.4646C104.975 18.3598 104.771 19.3624 104.84 20.3649C104.896 21.5574 105.175 22.7289 105.664 23.8183C106.151 24.959 106.825 26.0108 107.658 26.9309C108.36 27.7489 109.24 28.3956 110.231 28.8215C110.579 28.9607 110.945 29.0536 111.318 29.0981C111.602 29.1362 111.889 29.1362 112.173 29.0981C112.395 29.0674 112.611 29.0068 112.817 28.918C112.947 28.8667 113.074 28.8065 113.196 28.7379L113.325 28.6479L112.546 27.201L112.289 27.3424C112.028 27.4631 111.74 27.5162 111.453 27.4968C111.011 27.5014 110.574 27.4161 110.166 27.246C108.996 26.7094 108.032 25.8065 107.42 24.6736C106.651 23.5267 106.207 22.1936 106.133 20.8151C106.009 19.7189 106.39 18.6258 107.169 17.844C107.906 17.1924 108.967 17.0572 109.845 17.5031C111.026 17.9941 112.023 18.8446 112.694 19.934C113.441 21.0048 113.871 22.2639 113.936 23.5675C113.983 24.8837 113.696 25.4196 113.074 25.1752C112.852 25.0793 112.667 24.9148 112.546 24.7058C112.404 24.4894 112.324 24.238 112.315 23.9791L112.186 20.3649L110.9 19.8633V20.4356L110.784 20.2299C110.652 20.0416 110.496 19.8708 110.321 19.7218C110.115 19.5353 109.878 19.3872 109.62 19.2845C109.099 19.0286 108.474 19.1263 108.056 19.5289C107.582 20.0522 107.363 20.7583 107.458 21.4582C107.485 22.3225 107.743 23.164 108.204 23.8955C108.587 24.5687 109.179 25.0991 109.89 25.4067C110.188 25.5416 110.52 25.582 110.842 25.5225C111.034 25.4942 111.216 25.4167 111.369 25.2974C111.43 25.2313 111.482 25.1578 111.524 25.0788L111.678 25.381C111.826 25.6409 112.013 25.8772 112.231 26.082C112.474 26.3339 112.768 26.5312 113.093 26.6608C113.626 26.9442 114.283 26.8303 114.688 26.3842C115.152 25.7193 115.347 24.9039 115.235 24.1013ZM110.99 22.8344C111.032 23.1741 110.937 23.5166 110.726 23.7861C110.528 23.982 110.227 24.0287 109.98 23.9019C109.635 23.7526 109.348 23.4953 109.163 23.1688C108.937 22.8094 108.811 22.3967 108.796 21.9726C108.751 21.6355 108.855 21.2955 109.079 21.0401C109.296 20.8445 109.611 20.8036 109.87 20.9373C110.201 21.0808 110.474 21.3295 110.649 21.6446C110.862 22.0056 110.979 22.4152 110.99 22.8344Z" fill="#F47B56"/>
<path fill-rule="evenodd" clip-rule="evenodd" d="M191.184 93.7351C191.095 91.9817 190.515 90.2884 189.512 88.8476C188.652 87.3909 187.362 86.2362 185.82 85.5421C185.017 85.1882 184.113 85.1424 183.279 85.4135C182.486 85.6981 181.832 86.2758 181.452 87.0277C180.995 87.9205 180.79 88.9211 180.86 89.9216C180.915 91.1142 181.195 92.2857 181.683 93.375C182.171 94.5177 182.845 95.5717 183.677 96.494C184.381 97.3096 185.261 97.9541 186.251 98.3782C186.597 98.5192 186.96 98.6143 187.331 98.6612C187.617 98.6991 187.907 98.6991 188.193 98.6612C188.414 98.6268 188.63 98.5663 188.836 98.4811C188.967 98.4298 189.094 98.3696 189.216 98.3011L189.345 98.211L188.566 96.7641L188.309 96.9056C188.047 97.0237 187.76 97.0767 187.473 97.0599C187.031 97.0597 186.594 96.9723 186.186 96.8027C185.017 96.292 184.043 95.4196 183.407 94.3139C182.638 93.1676 182.193 91.8341 182.121 90.4554C181.984 89.3568 182.356 88.2559 183.131 87.465C183.87 86.8172 184.93 86.6848 185.807 87.1306C186.985 87.6217 187.979 88.4696 188.65 89.555C189.396 90.6284 189.826 91.8894 189.891 93.1949C189.93 94.5133 189.666 95.047 189.023 94.8027C188.801 94.7068 188.616 94.5422 188.495 94.3332C188.355 94.1158 188.275 93.865 188.264 93.6065L188.135 89.9923L186.849 89.4971V90.0695L186.727 89.8637C186.594 89.6736 186.439 89.5008 186.263 89.3492C186.058 89.1624 185.82 89.0142 185.562 88.9119C185.044 88.6571 184.421 88.7549 184.006 89.1563C183.528 89.6778 183.308 90.3854 183.407 91.0856C183.434 91.9529 183.694 92.797 184.16 93.5293C184.542 94.2049 185.133 94.7377 185.845 95.047C186.141 95.1821 186.472 95.2204 186.791 95.1563C186.984 95.1296 187.166 95.0519 187.318 94.9313C187.377 94.8641 187.429 94.7908 187.473 94.7126L187.627 95.0149C187.777 95.2739 187.963 95.51 188.18 95.7158C188.425 95.9662 188.718 96.1632 189.042 96.2946C189.575 96.5757 190.23 96.4621 190.637 96.0181C191.101 95.3532 191.296 94.5378 191.184 93.7351ZM186.945 92.4682C186.986 92.8088 186.888 93.1515 186.675 93.42C186.476 93.6137 186.175 93.6578 185.929 93.5293C185.584 93.3776 185.297 93.1181 185.112 92.7898C184.887 92.4326 184.76 92.0221 184.745 91.6001C184.7 91.2618 184.806 90.921 185.035 90.6676C185.253 90.4741 185.568 90.4357 185.826 90.5711C186.155 90.7142 186.427 90.9632 186.598 91.2785C186.814 91.6385 186.934 92.0484 186.945 92.4682Z" fill="#F47B56"/>
<path d="M61.324 116.269L39.5498 103.883L17.7821 116.295C17.7821 116.295 29.8946 123.857 40.7334 130.211C47.6162 125.349 53.7336 119.787 61.324 116.269Z" fill="url(#paint4_linear_5_5)"/>
<path fill-rule="evenodd" clip-rule="evenodd" d="M22 81.4709V108.406L42.9841 120.424L66.6777 106.411V79.4764" fill="#FF9271"/>
<path d="M42.9841 93.4889V120.424L66.6777 106.411V79.4764L42.9841 93.4889Z" fill="#DF5C34"/>
<path d="M22 81.4709L46.3469 67.5931L66.6777 79.4764L42.9841 93.4889L22 81.4709Z" fill="#F47B56"/>
<path fill-rule="evenodd" clip-rule="evenodd" d="M50.6449 75.34C48.4743 74.1515 46.0097 73.6086 43.5413 73.7752C40.9515 73.8209 38.4211 74.5605 36.2136 75.9172C35.0558 76.5764 34.1347 77.5838 33.5809 78.7967C33.1193 79.8468 33.1193 81.0428 33.5809 82.093C34.1399 83.2841 35.0707 84.261 36.2328 84.8762C37.6727 85.6902 39.26 86.2091 40.9023 86.4025C42.7091 86.6526 44.5437 86.6202 46.3405 86.3063C47.9893 86.0555 49.5733 85.4847 51.0036 84.6261C51.5001 84.3226 51.9619 83.9656 52.3808 83.5615C52.6985 83.2602 52.9821 82.9247 53.2263 82.5611C53.3954 82.2914 53.533 82.003 53.6363 81.7018C53.7079 81.5139 53.7658 81.321 53.8092 81.1246C53.813 81.052 53.813 80.9792 53.8092 80.9065L51.4328 80.7719L51.3431 81.1759C51.2141 81.5829 50.9952 81.9555 50.7026 82.2661C50.2651 82.7739 49.7481 83.2071 49.1717 83.5487C47.5058 84.5366 45.599 85.0427 43.663 85.0109C41.7186 85.0931 39.7895 84.6336 38.0903 83.6834C36.5338 82.7663 35.7331 81.6248 35.7331 80.3422C35.7203 79.0339 36.4698 77.9074 37.9814 76.9625C39.6426 75.9495 41.5452 75.4024 43.4901 75.3785C45.3252 75.2576 47.1566 75.6648 48.7681 76.5521C50.2841 77.4499 50.6001 78.1746 49.7161 78.7261C49.0682 79.075 48.2887 79.075 47.6408 78.7261L43.4709 76.2699L41.671 77.3922L42.3115 77.777H41.9592C41.6143 77.7962 41.2726 77.8543 40.9407 77.9501C40.5245 78.0583 40.1271 78.2291 39.7621 78.4568C38.9865 78.8251 38.489 79.6046 38.4811 80.4641C38.5195 81.2593 39.0319 81.9519 40.0312 82.5419C41.0879 83.1492 42.2913 83.4532 43.5093 83.4205C44.6865 83.4435 45.8468 83.137 46.8593 82.5355C47.2938 82.2893 47.656 81.9333 47.9098 81.503C48.0624 81.2716 48.1508 81.0038 48.166 80.727C48.1519 80.6101 48.1217 80.4957 48.0764 80.3871L48.5632 80.4256C49.0091 80.4387 49.4549 80.3934 49.8891 80.2909C50.4175 80.1841 50.9228 79.9843 51.3816 79.7009C52.3488 79.1173 52.7587 78.4247 52.6626 77.6295C52.5666 76.8343 51.8876 76.0711 50.6449 75.34ZM45.0722 79.4059C45.4878 79.5864 45.7875 79.9609 45.8729 80.4063H45.8985C45.9051 80.8163 45.6688 81.1913 45.2964 81.3619C44.8044 81.6528 44.2407 81.7995 43.6694 81.7851C43.0752 81.7989 42.4884 81.6503 41.972 81.3555C41.5615 81.1753 41.2748 80.7935 41.2162 80.3486C41.2258 79.9214 41.473 79.5353 41.8567 79.3482C42.3241 79.0681 42.8626 78.93 43.4068 78.9506C43.9925 78.9513 44.5674 79.1085 45.0722 79.4059Z" fill="#3E2928"/>
<defs>
<linearGradient id="paint0_linear_5_5" x1="97.5424" y1="19.7669" x2="67.2105" y2="100.001" gradientUnits="userSpaceOnUse">
<stop stop-color="#78B46A"/>
<stop offset="0.03" stop-color="#7F3500"/>
<stop offset="1" stop-color="white"/>
</linearGradient>
<linearGradient id="paint1_linear_5_5" x1="80.5632" y1="-67.7077" x2="1.79541" y2="125.349" gradientUnits="userSpaceOnUse">
<stop stop-color="#78B46A"/>
<stop offset="0.03" stop-color="#7F3500"/>
<stop offset="1" stop-color="white"/>
</linearGradient>
<linearGradient id="paint2_linear_5_5" x1="80.6771" y1="-69.5055" x2="-10.7873" y2="122.568" gradientUnits="userSpaceOnUse">
<stop stop-color="#78B46A"/>
<stop offset="0.03" stop-color="#7F3500"/>
<stop offset="1" stop-color="white"/>
</linearGradient>
<linearGradient id="paint3_linear_5_5" x1="214.79" y1="143.614" x2="193.103" y2="104.701" gradientUnits="userSpaceOnUse">
<stop stop-color="white" stop-opacity="0.01"/>
<stop offset="0.99" stop-color="#DC841E"/>
</linearGradient>
<linearGradient id="paint4_linear_5_5" x1="83.3708" y1="-67.2003" x2="4.29069" y2="121.911" gradientUnits="userSpaceOnUse">
<stop stop-color="#78B46A"/>
<stop offset="0.03" stop-color="#7F3500"/>
<stop offset="1" stop-color="white"/>
</linearGradient>
</defs>
</svg>
